memory_initialization_radix = 16;
memory_initialization_vector =
4d546864,
00000006,
00000001,
002b4d54,
726b0000,
15f600ff,
510307a1,
2000c000,
00904b36,
1c903b1b,
23804b40,
01803b40,
0290440f,
00905013,
06804440,
06904725,
01905a0b,
01905f0a,
07805040,
04904b36,
00805f40,
01805a40,
0a804740,
0190421a,
0290461b,
00904925,
08804b40,
11903d0c,
0a804640,
09804240,
0690461e,
0190590a,
00905e0a,
01904225,
00904e36,
01906111,
01805e40,
03806140,
02805940,
1d804940,
03804640,
06803d40,
00804240,
02804e40,
03904929,
01903317,
00903f27,
00904619,
1a903a1d,
0c905232,
02804940,
0b90503b,
02804640,
0e805240,
09803a40,
01803340,
01903a1a,
0b904d15,
00904f3a,
01805040,
0090620f,
02804d40,
03806240,
07803a40,
01905039,
01903821,
00804f40,
05803f40,
14903f1e,
11805040,
0790572a,
10805740,
0b803f40,
01903f23,
1890503b,
02904c11,
02803f40,
00904019,
02803840,
0890340c,
03804c40,
0a903b1f,
10805040,
09905033,
01804040,
00904c0e,
0190401f,
01905728,
09803b40,
02804c40,
06805740,
08903b1e,
00904e0a,
0b805040,
01803440,
02804e40,
0c804040,
0090552b,
01902a09,
01803b40,
0290360f,
00904224,
17802a40,
02903d0e,
01904914,
03905728,
10805740,
0190522d,
01904e3a,
0c803640,
09805540,
01804940,
03904913,
02805240,
0d803d40,
01804240,
0990503b,
03804940,
0390381a,
01804e40,
01902c10,
15903f1d,
08805040,
11905014,
1c90461e,
01905909,
02803f40,
06805040,
01805940,
0f804640,
00904726,
00905a0e,
10805a40,
0a903f23,
10804740,
09802c40,
02905012,
11805040,
05803840,
01904b3b,
16904410,
00905012,
02803f40,
00904723,
00905a0f,
01804440,
0390280c,
00904014,
06805040,
00805a40,
03804740,
0f903b17,
0c802840,
14803b40,
01804040,
01804b40,
04903409,
00904411,
00905014,
06804440,
05904725,
02905a0b,
06805040,
06904b36,
01805a40,
06803440,
03804740,
03904925,
01902a0e,
00904228,
0090461c,
04802a40,
00903614,
01902a12,
13903d11,
0e804640,
08804b40,
04904e39,
01906111,
04806140,
23802a40,
01803640,
03804940,
02803d40,
00804240,
03804e40,
0390331e,
00904926,
01904613,
01903a1c,
00903f25,
0190270f,
0f804640,
07904f38,
0190620f,
06806240,
13803a40,
01803340,
0090503b,
01804f40,
10804940,
0990522b,
02904f13,
08804f40,
04802740,
00904f0a,
00805040,
07804f40,
03805240,
01904b37,
01902c19,
00903822,
0c803f40,
00905330,
0d904928,
01903f20,
07805340,
05905231,
0e904725,
00905a0f,
01905f09,
0b90503a,
00805f40,
02804b40,
02804940,
00805240,
00805a40,
0a904626,
00804740,
0090590e,
0b904e3a,
0290610d,
02802c40,
01803f40,
00806140,
02805940,
03805040,
02803840,
01804640,
01905037,
0190341b,
01904c0a,
01902814,
09804c40,
01804e40,
00905723,
0c903b1e,
01905524,
00805740,
0a805040,
02905723,
07802840,
0690503a,
01904c0f,
02805540,
02805740,
05803b40,
01804c40,
02905723,
0d905524,
04805740,
09905724,
02803440,
02805040,
08805540,
01905039,
01902914,
0190422a,
00805740,
02802940,
00902a13,
09905723,
0d903d16,
00905526,
01805740,
07805040,
05905725,
0d905039,
02805540,
00805740,
0b905725,
0d905522,
03805740,
0a805040,
00905724,
01802a40,
0b803d40,
00905036,
00805540,
01902c19,
00903824,
01804240,
01805740,
0a905727,
0d905423,
02903f1a,
05805040,
04805740,
02905721,
03805440,
0a905036,
02805740,
0b905724,
06803840,
0790461b,
0090541e,
04805740,
09905723,
02805440,
0b804640,
0090482a,
01805740,
01803f40,
0b905723,
0d802c40,
00903334,
01805740,
02902931,
00803340,
02802940,
02902327,
02802340,
01902c12,
02805040,
01905725,
0c905032,
01802c40,
00904518,
01903a2a,
00904b14,
01805740,
01804540,
01803a40,
00804b40,
02903a15,
00804840,
04803a40,
0f904b36,
01903332,
05803340,
02805040,
1290532c,
01903331,
0190381f,
03803340,
0290232a,
02802340,
00903313,
01902c19,
02902017,
04802040,
01902012,
03803340,
00805340,
06903f23,
00905224,
04802040,
02902013,
07803840,
0190381f,
03803840,
0190391f,
02803940,
0590381e,
0090461d,
00805240,
01802040,
00802c40,
00905326,
01803840,
00903a24,
0090490e,
01803f40,
01902c15,
00803a40,
01903921,
01903f1f,
02803940,
00804940,
04802c40,
01902c18,
01902013,
00803f40,
01903f19,
02903b18,
02802040,
00805340,
02803b40,
05903819,
01905526,
0290200d,
00803840,
0190500b,
01903a1b,
03803a40,
07802040,
01802c40,
04903b14,
01805040,
02804640,
03803b40,
01904e18,
0090522e,
01903315,
00904227,
00805540,
01803f40,
01903a24,
02902714,
04804b40,
10802740,
00803340,
00803a40,
00804e40,
00905033,
01903331,
01805240,
01904126,
00804240,
01903a10,
00904b11,
02902225,
02802240,
01803340,
01903313,
01902716,
02904620,
07804b40,
06803340,
00803a40,
00804140,
0090422f,
01802740,
00903a22,
00904e3b,
0090610c,
01904b17,
01903312,
00903f23,
01903919,
00803a40,
00806140,
02803340,
01803940,
00903a1b,
06803a40,
0190330f,
00903a0c,
00805040,
04803a40,
02804b40,
05903a0b,
01902716,
01904b31,
05804640,
07803340,
01802740,
00803a40,
07804240,
05903333,
00905033,
03803340,
00803f40,
01903324,
00804b40,
02804e40,
02803340,
05902811,
00904723,
02905a0a,
01802840,
00902f10,
03802f40,
01902f11,
05904e33,
00805a40,
01903b1f,
0090610e,
01901c0b,
00802f40,
01902f17,
00803b40,
00804740,
01903b25,
01801c40,
00806140,
05904725,
03805040,
01901c0a,
02905f09,
02801c40,
02903611,
06904918,
00905032,
00805f40,
01803640,
00904b1b,
01903a2c,
00803b40,
01804940,
01802f40,
01803a40,
00804b40,
02903a1c,
03902f0a,
00803a40,
0090440b,
03804440,
01802f40,
03902f0a,
01901d0f,
03801d40,
02802f40,
03905329,
0190401e,
03901c0a,
03903b0e,
04804e40,
02801c40,
01803b40,
00905a10,
01903823,
04805340,
01904b0b,
03805040,
03904e34,
01804b40,
00805a40,
0090610f,
01902f16,
00803840,
01903627,
00903b25,
00804040,
03902311,
0090490f,
02806140,
08804940,
05802340,
0190230f,
04802340,
00802f40,
00904913,
00904c32,
01903331,
00803640,
0290292a,
00803340,
02802940,
08902f10,
00804940,
01904911,
01902310,
00803b40,
02903b12,
04803b40,
04903d26,
01804740,
00904b3b,
01903a2b,
00803d40,
00804940,
00804c40,
0090530c,
01903f2f,
0090520c,
01802340,
00804e40,
01803a40,
00805340,
02903a18,
03803a40,
04903a0f,
03803a40,
00805240,
06802f40,
01902f0c,
01903609,
02802f40,
01902f0d,
00803640,
05902309,
06904e38,
02802340,
00802f40,
0b904c33,
01903330,
00804b40,
01803f40,
01902a2b,
00904911,
02802a40,
00803340,
04903d19,
03903115,
00804e40,
0190380e,
01905014,
01902513,
0090440e,
05804440,
07803840,
00804940,
01903821,
00904b35,
0190401d,
00804c40,
01803d40,
09805040,
04804040,
01903f1a,
08803840,
00803f40,
00904110,
01802540,
00803140,
00904920,
00804b40,
0190311b,
01903927,
00804140,
00904b16,
01903d25,
0190260f,
00803940,
03902512,
00802640,
0090381e,
03802540,
01803840,
02904410,
0090470f,
00905016,
01803d40,
01903b23,
01903822,
01803b40,
01804440,
01902415,
02803840,
00903b1d,
0190381e,
01802440,
01803840,
00803b40,
01804b40,
00904c34,
01903a27,
00804740,
01902510,
00804940,
02803a40,
01903a24,
03803a40,
06802540,
00904411,
07803140,
00903814,
03804440,
02803840,
01903823,
00904b36,
00804c40,
00805040,
01902011,
00902c17,
02903311,
04803340,
01903310,
04803340,
00903f39,
03802040,
01902010,
07903334,
02802c40,
00803840,
00904923,
01802040,
0790381d,
02902c17,
04902010,
08802040,
01902013,
02803340,
00904728,
01802040,
01802c40,
00803840,
00903a28,
00804940,
0190490b,
00905f0b,
01902c1e,
00804b40,
01803a40,
02903a27,
02803a40,
00903b24,
02804940,
02803b40,
01903b20,
00805f40,
02802c40,
00903a29,
00803b40,
01902c20,
00804740,
0b90200d,
00803a40,
00904410,
01903821,
03802040,
0490200b,
04802040,
0090470b,
01903729,
00803840,
00904910,
01904217,
0190351d,
00803740,
00804440,
00804740,
02803540,
0190351f,
02803540,
0090361e,
02803f40,
01803640,
01802c40,
01904717,
00804940,
01904027,
00904927,
01804240,
01903327,
02902120,
00803340,
0190351d,
02802140,
01803540,
02903511,
03803540,
01903511,
03803540,
0290350e,
05803540,
00804740,
01804940,
01904211,
00904724,
00904918,
00905a0f,
00905f0b,
01902e22,
00903b1b,
00804040,
06802e40,
00902f1d,
00804940,
01904912,
00805f40,
01802f40,
01904025,
03903624,
00804240,
01804940,
01904913,
03804940,
00805a40,
02903522,
00803640,
02803540,
00903620,
01803b40,
00904920,
0190351e,
00803640,
01904621,
00804740,
00904b1d,
01803540,
00903727,
00904418,
00905910,
01804940,
01803740,
00804b40,
02903726,
02803740,
00903822,
02803840,
01904b13,
03903a2e,
00804040,
0090420a,
01804b40,
02804440,
02804240,
02904013,
04904211,
02803a40,
00903b2e,
00905012,
01903412,
00804040,
00804240,
00805940,
01904014,
00804640,
02803440,
05903511,
00904614,
03804040,
00904b1c,
01804640,
01803540,
0090520c,
01903f31,
03805040,
07902e0d,
00803b40,
0090491b,
00904f1d,
00805240,
01904327,
02802e40,
01903312,
02804b40,
01902516,
00803340,
00904609,
04802540,
04804640,
04804940,
06804f40,
0190332d,
01804340,
00905011,
02903b20,
00904312,
01803340,
02804340,
0290430e,
05804340,
04803b40,
02805040,
07903a2b,
0090451f,
00905b0b,
0190340d,
00904319,
01804540,
00905913,
00905e0d,
02803440,
01805b40,
03803a40,
01903a1e,
02805e40,
09803a40,
02805940,
02902b0c,
03802b40,
00905b0b,
02804340,
0190430f,
04902a0d,
04802a40,
05804340,
07805b40,
01903334,
01904724,
00905a0d,
02803340,
02905f09,
01903819,
01902329,
02802340,
00805f40,
02903313,
00803f40,
02902015,
00903f2b,
02902c21,
00805a40,
04802040,
01902011,
02803340,
04804740,
01903314,
00904722,
0190462c,
01804740,
01804640,
0090472a,
01802040,
0090462b,
01902010,
00803340,
00804740,
01903315,
01904728,
01804640,
0190462b,
00804740,
01803340,
0090472c,
01802040,
00804640,
01902011,
01905209,
02804740,
01802040,
00904627,
01902010,
04802040,
01902010,
03802040,
00803840,
00903a2c,
00804640,
00805240,
01904914,
00905a11,
01904728,
00905f0c,
02803a40,
02903a21,
01805f40,
01803a40,
00903b1c,
03802c40,
01902c21,
00803b40,
00804940,
03902014,
00905709,
03802040,
00805740,
02805a40,
05904927,
0190462c,
01804740,
0190200e,
03802040,
0190200c,
07802040,
00802c40,
01803f40,
00804640,
00904722,
01904627,
01804740,
01804640,
00904727,
02903f16,
0790462d,
00804740,
00905911,
00905e12,
02903a28,
0390271f,
00804940,
06805e40,
03904d09,
00805940,
0b802740,
00904b20,
00804d40,
01903333,
00803a40,
00905014,
01903a2e,
01803f40,
02803340,
01903f16,
00805040,
02905012,
02902e1f,
05802e40,
01804b40,
00805040,
0390500c,
0090560c,
01803f40,
01903f12,
02805040,
0190411c,
01803f40,
0090491a,
01903923,
00803a40,
00904a1c,
01904e1b,
01803940,
00903a23,
00804140,
00904230,
00804940,
00904b18,
0190331c,
00804a40,
01803a40,
02903a16,
00805640,
05803a40,
01903a28,
0290560f,
15803340,
01804e40,
01903f0e,
01805640,
02803f40,
0c903232,
00804640,
00904713,
01803a40,
00905018,
01803240,
00804b40,
03902125,
00904016,
00804740,
01903b26,
00804240,
01802140,
0090330f,
03803340,
01902815,
03904e1f,
03802840,
00805040,
09904430,
02804040,
08902f16,
03904230,
01802f40,
0090570b,
00905e0c,
02804440,
03902f19,
00805740,
04805e40,
01802f40,
01803b40,
02903a26,
0090442a,
01804240,
00905710,
01902f18,
00803a40,
01903829,
01902817,
01805740,
01803840,
01903824,
01802840,
00905709,
0390462f,
01802f40,
00805740,
01904219,
01902815,
00803840,
01903b22,
00905709,
01804440,
01802840,
00903822,
01803b40,
03903b1c,
01902814,
00803840,
0190381d,
01803b40,
01803840,
00804640,
00904729,
01804240,
0090462b,
00905f0c,
01804740,
00904c0d,
00804e40,
00905a09,
01804640,
00904729,
0190381c,
00904014,
01802840,
0190280d,
01805a40,
02802840,
00805740,
0190280f,
00803840,
0090420f,
0190381c,
01805f40,
01802840,
00804240,
0090442c,
01804c40,
06804740,
05804040,
00904e22,
01803840,
0190490b,
0190550b,
01903629,
0090510b,
02902414,
00804440,
03902310,
00802440,
05904729,
01903b1e,
00805540,
01902f19,
05804e40,
04804940,
01802340,
00802f40,
00803b40,
01803640,
00903d14,
00805140,
01903223,
0190292e,
00904c17,
01803240,
00904021,
01802940,
00902a24,
02902921,
00802a40,
02802940,
00804c40,
01902f1e,
02802f40,
01803d40,
01904e0c,
03903b1e,
02902f1e,
00803b40,
04802f40,
00903b1a,
01804740,
02903a24,
00803b40,
00804e40,
01902f1e,
00903f33,
00804040,
00904220,
02802f40,
01902f1b,
00803a40,
03903610,
01802f40,
04803640,
0190361d,
05902f13,
04802f40,
03804240,
04803640,
08904215,
03804240,
00904e1c,
0190422e,
0a90322f,
01904c0f,
01803240,
00903333,
0290292d,
00803f40,
02802940,
00803340,
00904028,
00804240,
01904212,
01902327,
00903827,
02802340,
00804240,
00804e40,
0290470c,
02804c40,
01903118,
0990250d,
02904c2d,
01802540,
01803140,
00804740,
01903f2d,
00804040,
0b90311d,
01804c40,
01803140,
06803840,
0290251a,
03902418,
00802540,
00903a29,
01803f40,
0090441a,
02802440,
00903f26,
01903118,
00803a40,
03803140,
00803f40,
01903f25,
0190311d,
0290382c,
01803f40,
0090472f,
00904b0a,
01803140,
00903f20,
02804b40,
03902519,
00904912,
01804440,
02802540,
00903114,
03803140,
02903115,
00803f40,
00904027,
0090462d,
01804740,
02803140,
02903116,
00804040,
01904027,
02803140,
02903115,
03803140,
0090320f,
02904b28,
01803240,
07804640,
02804040,
0190480a,
00804940,
01903f2d,
01902c19,
01903334,
06902011,
02804840,
0090491d,
01803840,
01802040,
0190200f,
06802c40,
00903815,
01902c13,
03802040,
01802c40,
00803840,
0590460c,
08803340,
00804640,
00804940,
00804b40,
00904c2d,
0190331d,
01904919,
00904f0a,
0290461b,
09804f40,
01803340,
00804c40,
0190331b,
01903a27,
00804940,
01804640,
02803a40,
0090490d,
02903b25,
00904619,
01902c1d,
00904e0c,
01804940,
01802c40,
00803b40,
01903823,
00804e40,
01904918,
02803840,
00904e0c,
01902c25,
02804e40,
08804640,
00904729,
00804940,
02803340,
01903317,
04803340,
01903315,
04803340,
0190462b,
01804740,
0b802c40,
01904918,
0190332d,
00904429,
01804640,
00904c0b,
01904022,
01803f40,
01902120,
00804040,
01803340,
00904022,
01802140,
01804040,
0190281d,
00904028,
01904717,
01802840,
02804c40,
08902814,
01804040,
02802840,
00903f1f,
00804440,
00904b23,
01902815,
01803f40,
01903b23,
01802840,
00903f1b,
01902813,
02803f40,
01802840,
00903f17,
01902811,
03802840,
00803f40,
0190280e,
00903f13,
00804940,
01904910,
02802840,
0190280e,
00803b40,
00803f40,
00804940,
00804b40,
02903f0f,
01802840,
0190280d,
01803f40,
02802840,
00903b15,
03803b40,
0090500c,
01903b24,
00904330,
01804740,
00904d09,
01903f1a,
00904619,
0190271d,
00805040,
01903a24,
00803b40,
00804d40,
0290560d,
01802740,
00803a40,
01903a21,
01805640,
0290271a,
01803a40,
02903a19,
01802740,
0290271d,
01804640,
05802740,
01904b24,
02804340,
02902716,
0b803a40,
00803f40,
01903824,
00903f16,
02804b40,
02802740,
04803840,
02803f40,
0190442f,
02903f14,
0190382a,
01902c17,
02803f40,
13802c40,
01903333,
00904b10,
03803840,
0190381f,
04803340,
01903318,
06803340,
00803840,
00804440,
00804b40,
00ff2f00,
;